<svg width="36" height="32" viewBox="0 0 36 32" fill="none" xmlns="http://www.w3.org/2000/svg">
<path d="M31.84 2.02C31.635 1.43007 31.2514 0.918596 30.7425 0.55661C30.2335 0.194624 29.6245 8.33662e-05 29 0H7C5.69 0 4.57 0.840001 4.16 2.02L0 14V30C0 31.1 0.9 32 2 32H4C4.53043 32 5.03914 31.7893 5.41421 31.4142C5.78929 31.0391 6 30.5304 6 30V28H30V30C30 31.1 30.9 32 32 32H34C34.5304 32 35.0391 31.7893 35.4142 31.4142C35.7893 31.0391 36 30.5304 36 30V14L31.84 2.02ZM7 22C5.34 22 4 20.66 4 19C4 17.34 5.34 16 7 16C8.66 16 10 17.34 10 19C10 20.66 8.66 22 7 22ZM29 22C27.34 22 26 20.66 26 19C26 17.34 27.34 16 29 16C30.66 16 32 17.34 32 19C32 20.66 30.66 22 29 22ZM4 12L7 3H29L32 12H4Z" fill="#FEFEFE"/>
</svg>
